PathFileType	4	(X/Y/Z)
DataRate	CameraRate	NumFrames	NumMarkers	Units	OrigDataRate	OrigDataStartFrame	OrigNumFrames	
  120.0	  120.0	    4	     56	     mm	  120.0	      1	    465
Frame#	Time	LASI			RASI			LPSI			RPSI			RTH1			RTH2			RTH3			RLFC			RMFC			LTH1			LTH2			LTH3			LLFC			LMFC			RTB1			RTB2			RTB3			RLMAL			RMMAL			LTB1			LTB2			LTB3			LMMAL			LLMAL			RCAL			RTOE			RMT5			LCAL			LTOE			LMT5			LACR			RACR			CLAV			C7			LASH			LPSH			RASH			RPSH			RUA1			RUA2			RUA3			RLEL			RMEL			LUA1			LUA2			LUA3			LLEL			LMEL			RFAsuperior			RFAradius			RFAulna			LFAsuperior			LFAradius			LFAulna			RHJC			LHJC			
		X1	Y1	Z1	X2	Y2	Z2	X3	Y3	Z3	X4	Y4	Z4	X5	Y5	Z5	X6	Y6	Z6	X7	Y7	Z7	X8	Y8	Z8	X9	Y9	Z9	X10	Y10	Z10	X11	Y11	Z11	X12	Y12	Z12	X13	Y13	Z13	X14	Y14	Z14	X15	Y15	Z15	X16	Y16	Z16	X17	Y17	Z17	X18	Y18	Z18	X19	Y19	Z19	X20	Y20	Z20	X21	Y21	Z21	X22	Y22	Z22	X23	Y23	Z23	X24	Y24	Z24	X25	Y25	Z25	X26	Y26	Z26	X27	Y27	Z27	X28	Y28	Z28	X29	Y29	Z29	X30	Y30	Z30	X31	Y31	Z31	X32	Y32	Z32	X33	Y33	Z33	X34	Y34	Z34	X35	Y35	Z35	X36	Y36	Z36	X37	Y37	Z37	X38	Y38	Z38	X39	Y39	Z39	X40	Y40	Z40	X41	Y41	Z41	X42	Y42	Z42	X43	Y43	Z43	X44	Y44	Z44	X45	Y45	Z45	X46	Y46	Z46	X47	Y47	Z47	X48	Y48	Z48	X49	Y49	Z49	X50	Y50	Z50	X51	Y51	Z51	X52	Y52	Z52	X53	Y53	Z53	X54	Y54	Z54	X55	Y55	Z55	X56	Y56	Z56	

5	0.04167	618.36510	1111.47401	-640.65220	655.09998	1107.56565	-388.56758	462.46559	1142.41770	-533.96420	480.59832	1143.37821	-436.18959	628.06087	877.51132	-328.55234	642.35772	753.28016	-359.24623	556.54488	637.38434	-330.31282	547.88227	556.47983	-330.54634	540.51295	560.68634	-445.08506	541.61048	870.18084	-682.47660	588.36940	763.95000	-659.42501	526.26228	659.12432	-652.02133	514.69449	574.74407	-644.61868	526.87476	569.65762	-530.35357	562.16236	430.78274	-378.57358	504.13618	353.02340	-307.15851	534.84509	234.22689	-363.32030	486.50185	139.49452	-310.86083	499.22915	139.90143	-392.71895	534.19461	433.01423	-589.53840	477.42066	327.79215	-647.08814	515.29376	218.01074	-604.21618	479.89971	141.65522	-565.36079	464.96262	140.22194	-641.61941	417.55695	105.69844	-347.67680	630.59200	57.92641	-392.84597	624.26720	71.13174	-300.61827	404.28814	104.65647	-598.29589	626.68746	53.71575	-576.20859	603.19085	70.51457	-667.53623	514.14903	1559.31316	-663.26485	553.33627	1558.64599	-340.96030	626.06973	1510.40450	-491.98097	505.03566	1589.35565	-496.91549	572.72848	1506.66845	-634.71532	461.94008	1527.12228	-640.74834	612.96710	1515.48614	-366.99790	498.85224	1522.21993	-342.36643	572.00475	1480.78747	-265.98439	523.41642	1429.83522	-255.38209	574.69248	1384.51813	-227.42629	525.81791	1289.75137	-144.68694	522.17590	1241.34489	-202.95860	487.31979	1467.31578	-744.82954	451.95515	1389.49904	-740.28843	507.68586	1398.04262	-789.70343	461.45486	1297.55655	-870.60888	463.07440	1255.51149	-811.08776	612.31922	1312.32589	-146.42040	773.14222	1309.05914	-212.87840	778.98649	1290.98677	-152.28729	548.12895	1324.87553	-874.42027	711.66321	1330.70931	-818.99281	708.83758	1320.06984	-878.68556	600.99484	999.41043	-401.81846	565.27539	1006.03665	-615.30534	
6	0.05000	618.41489	1111.49611	-640.61354	655.15197	1107.55968	-388.64168	462.50679	1142.44211	-533.93964	480.98580	1143.43560	-435.65771	628.13740	877.49608	-328.57203	642.42421	753.28010	-359.26437	556.62878	637.40631	-330.23823	547.93019	556.47015	-330.54896	540.50874	560.72042	-444.63357	541.63322	870.20605	-682.49467	588.37311	763.96721	-659.41759	526.29607	659.13927	-652.04157	514.68864	574.70811	-644.59291	526.76405	569.68821	-530.36412	562.18252	430.76530	-378.55608	504.17915	352.96760	-307.12991	534.86312	234.23266	-363.28406	486.50415	139.50485	-310.84254	499.19156	139.90934	-392.70898	534.19995	433.02279	-589.57808	477.42009	327.81239	-647.08726	515.29218	218.00107	-604.21003	479.93239	141.67329	-565.36480	464.96738	140.23317	-641.61231	417.56102	105.70047	-347.65019	630.58288	57.90327	-392.83254	624.26200	71.13333	-300.58896	404.25140	104.66053	-598.30311	626.66549	53.69644	-576.20344	603.18498	70.51559	-667.51595	514.21502	1559.34362	-663.25901	553.42189	1558.61770	-340.93675	626.11407	1510.40424	-491.94516	505.09074	1589.34981	-496.88145	572.77851	1506.68136	-634.68024	461.99217	1527.14368	-640.71441	613.04259	1515.45884	-366.96138	498.94049	1522.22600	-342.31027	572.09360	1480.78008	-265.95173	523.50529	1429.80804	-255.36569	574.76377	1384.49543	-227.41997	525.89216	1289.75453	-144.65959	522.26242	1241.33700	-202.96489	487.31953	1467.37636	-744.72703	451.97577	1389.50820	-740.41056	507.69991	1398.09514	-789.63815	461.47718	1297.59095	-870.59536	463.01995	1255.57725	-811.05103	612.40448	1312.30241	-146.40665	773.16262	1309.04334	-212.87671	779.04768	1290.96692	-152.29536	548.10142	1324.92064	-874.38252	711.67993	1330.68970	-818.99805	708.86454	1320.09052	-878.71310	601.23969	999.38559	-401.82822	565.13756	1006.11333	-615.23607	
7	0.05833	618.45209	1111.51118	-640.58027	655.20332	1107.55503	-388.70367	462.54733	1142.46872	-533.92304	481.38306	1143.48268	-435.11730	628.22195	877.48612	-328.58561	642.49478	753.27394	-359.26987	556.72140	637.48509	-330.08505	547.97565	556.46330	-330.54644	540.50701	560.73805	-444.23602	541.65302	870.22192	-682.50490	588.38186	763.97678	-659.40936	526.31656	659.14586	-652.04680	514.68681	574.68499	-644.56091	526.52801	569.76580	-530.39818	562.20473	430.74831	-378.52625	504.22216	352.91174	-307.08845	534.87841	234.23474	-363.25633	486.51037	139.51326	-310.82771	499.16542	139.91619	-392.69915	534.21091	433.02768	-589.60365	477.42090	327.82794	-647.08659	515.29132	217.99074	-604.19330	479.96127	141.68993	-565.36567	464.96559	140.24188	-641.61067	417.56622	105.70260	-347.62765	630.57292	57.88128	-392.81479	624.25951	71.12950	-300.56466	404.23247	104.67755	-598.32981	626.65726	53.68302	-576.18204	603.18126	70.50639	-667.48748	514.27453	1559.36809	-663.24416	553.50295	1558.59702	-340.91263	626.16629	1510.39279	-491.90198	505.14648	1589.34052	-496.84055	572.82101	1506.69130	-634.64720	462.04069	1527.16518	-640.68434	613.12679	1515.43208	-366.89766	499.03465	1522.22749	-342.24988	572.17960	1480.76447	-265.91507	523.59348	1429.77835	-255.33664	574.83946	1384.47434	-227.39644	525.97018	1289.75067	-144.61950	522.34358	1241.33226	-202.96152	487.34165	1467.40600	-744.67585	452.01105	1389.51096	-740.53331	507.71668	1398.13071	-789.59168	461.49114	1297.61957	-870.58074	462.99992	1255.62711	-811.03361	612.48673	1312.26619	-146.38717	773.18384	1309.03032	-212.87537	779.11119	1290.94023	-152.30116	548.09440	1324.95579	-874.35411	711.70902	1330.66122	-818.98447	708.88397	1320.09926	-878.73217	601.48193	999.36186	-401.83133	564.99653	1006.18262	-615.15911	
8	0.06667	618.47437	1111.51699	-640.55494	655.25505	1107.55082	-388.74289	462.58322	1142.49587	-533.91684	481.69712	1143.50869	-434.73256	628.31337	877.48316	-328.59919	642.56721	753.26226	-359.27362	556.81288	637.60992	-329.87887	548.01552	556.46121	-330.54191	540.50366	560.73701	-443.85448	541.67088	870.22863	-682.50697	588.40080	763.97650	-659.40238	526.32336	659.14290	-652.03637	514.69331	574.68105	-644.51967	526.18782	569.88365	-530.45228	562.22848	430.73395	-378.49130	504.26073	352.86492	-307.04514	534.89024	234.23268	-363.24693	486.51956	139.52104	-310.82052	499.15433	139.92041	-392.69090	534.22917	433.02674	-589.61073	477.42479	327.83457	-647.08221	515.29279	217.98193	-604.17084	479.98076	141.70310	-565.36363	464.95687	140.24844	-641.61554	417.57110	105.70693	-347.61615	630.56387	57.86673	-392.80035	624.25975	71.12177	-300.55012	404.23347	104.70559	-598.36708	626.66249	53.68091	-576.15208	603.17936	70.49092	-667.45930	514.32470	1559.38165	-663.22122	553.57308	1558.58904	-340.89895	626.22684	1510.37124	-491.86105	505.20319	1589.33099	-496.80044	572.85482	1506.69747	-634.61472	462.08336	1527.18450	-640.65906	613.21406	1515.41098	-366.82087	499.13027	1522.22526	-342.19334	572.25877	1480.74214	-265.88182	523.67624	1429.75188	-255.30187	574.91659	1384.45956	-227.36007	526.04903	1289.74121	-144.57146	522.41320	1241.33063	-202.94534	487.38940	1467.39952	-744.68097	452.06078	1389.50895	-740.64604	507.73805	1398.14337	-789.57204	461.49798	1297.64049	-870.56735	463.02273	1255.65558	-811.03911	612.56226	1312.21773	-146.37446	773.20584	1309.01999	-212.87759	779.17621	1290.90810	-152.31247	548.11526	1324.97526	-874.34082	711.74811	1330.62934	-818.95971	708.89517	1320.09329	-878.73811	601.65940	999.34630	-401.82749	564.90422	1006.22638	-615.09880	
